<svg width="130" height="122" viewBox="0 0 130 122" fill="none" xmlns="http://www.w3.org/2000/svg">
    <g clip-path="url(#clip0_4_1833)">
        <path opacity="0.5" d="M60.1339 121.362C93.3449 121.362 120.268 94.2299 120.268 60.7607C120.268 27.2916 93.3449 0.159424 60.1339 0.159424C26.9229 0.159424 0 27.2916 0 60.7607C0 94.2299 26.9229 121.362 60.1339 121.362Z" fill="white"/>
        <path d="M69.4705 121.601C102.682 121.601 129.604 94.4692 129.604 61C129.604 27.5308 102.682 0.398682 69.4705 0.398682C36.2594 0.398682 9.33658 27.5308 9.33658 61C9.33658 94.4692 36.2594 121.601 69.4705 121.601Z" stroke="white" stroke-miterlimit="10"/>
        <path d="M63.2197 31.8954L42.0146 56.4549C41.5399 57.013 41.9355 57.8902 42.6476 57.8902H49.3731H86.2447H89.7261C90.4382 57.8902 90.8338 57.013 90.3591 56.4549L69.154 31.8954C67.5715 30.0614 64.8022 30.0614 63.2197 31.8954Z" fill="white"/>
        <path d="M86.2447 64.1097V72.881C86.2447 78.7816 81.4973 83.4862 75.7212 83.4862H56.6525C50.7973 83.4862 46.129 78.7019 46.129 72.881V64.1097H86.2447Z" fill="white"/>
    </g>
    <defs>
        <clipPath id="clip0_4_1833">
            <rect width="130" height="122" fill="white"/>
        </clipPath>
    </defs>
</svg>
