<svg width="131" height="123" viewBox="0 0 131 123" fill="none" xmlns="http://www.w3.org/2000/svg">
    <g clip-path="url(#clip0_301_353)">
        <path opacity="0.5" d="M70.1814 122.598C103.771 122.598 131 95.2435 131 61.5C131 27.7565 103.771 0.401978 70.1814 0.401978C36.5923 0.401978 9.36285 27.7565 9.36285 61.5C9.36285 95.2435 36.5923 122.598 70.1814 122.598Z" fill="white"/>
        <path d="M61.2187 122.598C94.8079 122.598 122.037 95.2435 122.037 61.5C122.037 27.7565 94.8079 0.401978 61.2187 0.401978C27.6295 0.401978 0.400146 27.7565 0.400146 61.5C0.400146 95.2435 27.6295 122.598 61.2187 122.598Z" stroke="white" stroke-miterlimit="10"/>
        <path d="M71.3818 55.8726C73.3024 53.9432 75.223 52.0137 77.1435 50.0843C77.6237 49.602 78.1038 48.9588 78.664 48.2353C80.8247 45.1 81.5449 41.3216 80.8247 37.5432C80.1044 33.7647 77.9438 30.4686 74.7428 28.2177C71.6219 26.0471 67.5406 25.1628 63.8595 25.8863C60.1784 26.5294 56.9774 28.7 54.8167 31.8353C52.9762 34.5686 52.0959 37.8647 52.416 41.1608C52.7361 44.4569 54.1765 47.5922 56.4972 50.0039C58.4178 52.0137 60.4184 53.9432 62.339 55.953C52.2559 57.9628 44.6536 66.8863 44.6536 77.6588C44.6536 78.8647 44.7337 80.0706 44.9737 81.2765C50.8155 86.2608 58.4178 89.3157 66.7404 89.3157C75.0629 89.3157 82.6652 86.2608 88.507 81.2765C88.6671 80.0706 88.8271 78.8647 88.8271 77.6588C88.8271 66.8863 81.3848 57.9628 71.3818 55.8726ZM57.4575 49.0392C55.2969 46.7883 53.9365 43.9745 53.6964 40.9196C53.3763 37.9451 54.1765 34.8902 55.9371 32.3981C57.9377 29.5039 60.8186 27.5745 64.1796 26.9314C64.9798 26.7706 65.7801 26.6902 66.5003 26.6902C69.2211 26.6902 71.942 27.5745 74.1026 29.102C76.9835 31.1118 78.9841 34.1667 79.7043 37.6235C80.3445 41.0804 79.7043 44.6177 77.7037 47.4314C77.2236 48.1549 76.7434 48.7177 76.3433 49.1196C74.2627 51.2902 72.102 53.3804 70.0214 55.551C69.8613 55.551 69.7813 55.4706 69.6212 55.4706C68.661 55.3902 67.7007 55.3098 66.7404 55.3098C65.7801 55.3098 64.8198 55.3902 63.8595 55.4706C63.8595 55.4706 63.8595 55.4706 63.7795 55.4706C61.6988 53.3804 59.5382 51.2098 57.4575 49.0392Z" fill="white"/>
        <path d="M76.6634 37.9451C76.1033 35.2117 74.5828 32.8804 72.3421 31.3529C71.3018 30.6294 70.1814 30.147 68.9811 29.8255C68.821 29.7451 68.661 29.7451 68.5009 29.7451C68.1008 29.6647 67.7007 29.9862 67.7007 30.3882V30.7098C67.7007 31.0313 67.9408 31.3529 68.2609 31.3529C69.3812 31.5941 70.5015 32.0764 71.4618 32.7196C71.942 33.0411 72.3421 33.4431 72.7422 33.8451C73.9426 35.0509 74.7428 36.5784 75.0629 38.2666C75.383 39.7941 75.223 41.3215 74.7428 42.7686C74.5028 43.4117 74.1827 44.0549 73.7825 44.6176C73.4624 45.1 73.1423 45.4215 72.9023 45.7431C71.7819 46.8686 70.6616 48.0745 69.4612 49.2C69.4612 48.9588 69.4612 48.798 69.4612 48.5568C69.4612 48.2353 69.4612 47.9137 69.4612 47.5117C69.4612 47.2706 69.6213 46.8686 69.7813 46.7078C69.9414 46.547 70.1014 46.3059 70.3415 46.1451C70.5015 45.9039 70.7416 45.7431 70.9017 45.5019C71.3018 44.7784 71.2218 44.1353 70.8216 43.4921C70.6616 43.2509 70.5816 43.2509 70.4215 43.4921C70.0214 43.8941 69.5412 44.3764 69.1411 44.7784C68.741 45.1804 68.2609 45.6627 67.8607 46.0647C67.7007 46.1451 67.7007 46.3059 67.7007 46.4666C67.7007 46.547 67.7007 46.547 67.7007 46.6274C67.7007 46.8686 67.7007 47.1902 67.7007 47.4313C67.7007 48.1549 67.7807 51.3706 67.7807 51.3706V51.6117C67.7807 52.2549 68.5009 52.4961 68.9811 52.0941C70.6616 50.4059 72.5021 48.5568 74.1827 46.7882C74.5028 46.3862 74.9029 45.9843 75.223 45.4215C76.6634 43.3313 77.1436 40.598 76.6634 37.9451Z" fill="white"/>
        <path d="M56.7374 37.9451C57.2975 35.2117 58.818 32.8804 61.0587 31.3529C62.099 30.6294 63.2193 30.147 64.4197 29.8255C64.5797 29.7451 64.7398 29.7451 64.8998 29.7451C65.3 29.6647 65.7001 29.9862 65.7001 30.3882V30.7098C65.7001 31.0313 65.46 31.3529 65.1399 31.3529C64.0196 31.5941 62.8992 32.0764 61.9389 32.7196C61.4588 33.0411 61.0587 33.4431 60.6586 33.8451C59.4582 35.0509 58.6579 36.5784 58.3378 38.2666C58.0177 39.7941 58.1778 41.3215 58.6579 42.7686C58.898 43.4117 59.2181 44.0549 59.6182 44.6176C59.9383 45.1 60.2584 45.4215 60.4985 45.7431C61.6188 46.8686 62.7392 48.0745 63.9396 49.2C63.9396 48.9588 63.9396 48.798 63.9396 48.5568C63.9396 48.2353 63.9396 47.9137 63.9396 47.5117C63.9396 47.2706 63.7795 46.8686 63.6195 46.7078C63.4594 46.547 63.2994 46.3059 63.0593 46.1451C62.8992 45.9039 62.6592 45.7431 62.4991 45.5019C62.099 44.7784 62.179 44.1353 62.5791 43.4921C62.7392 43.2509 62.8192 43.2509 62.9793 43.4921C63.3794 43.8941 63.8595 44.3764 64.2596 44.7784C64.6598 45.1804 65.1399 45.6627 65.54 46.0647C65.7001 46.1451 65.7001 46.3059 65.7001 46.4666C65.7001 46.547 65.7001 46.547 65.7001 46.6274C65.7001 46.8686 65.7001 47.1902 65.7001 47.4313C65.7001 48.1549 65.6201 51.3706 65.6201 51.3706V51.6117C65.6201 52.2549 64.8998 52.4961 64.4197 52.0941C62.7392 50.4059 60.8986 48.5568 59.2181 46.7882C58.898 46.3862 58.4979 45.9843 58.1778 45.4215C56.7373 43.3313 56.1772 40.598 56.7374 37.9451Z" fill="white"/>
    </g>
    <defs>
        <clipPath id="clip0_301_353">
            <rect width="131" height="123" fill="white"/>
        </clipPath>
    </defs>
</svg>
