<svg width="130" height="121" viewBox="0 0 130 121" fill="none" xmlns="http://www.w3.org/2000/svg">
    <g clip-path="url(#clip0_4_1841)">
        <path d="M69.6457 120.605C102.978 120.605 130 93.6948 130 60.5C130 27.3051 102.978 0.395386 69.6457 0.395386C36.3129 0.395386 9.29138 27.3051 9.29138 60.5C9.29138 93.6948 36.3129 120.605 69.6457 120.605Z" fill="#A5DFD8"/>
        <path d="M60.7514 120.605C94.0841 120.605 121.106 93.6948 121.106 60.5C121.106 27.3051 94.0841 0.395386 60.7514 0.395386C27.4186 0.395386 0.397064 27.3051 0.397064 60.5C0.397064 93.6948 27.4186 120.605 60.7514 120.605Z" stroke="white" stroke-miterlimit="10"/>
        <path d="M62.6573 38.9888L49.3158 54.1732C48.9982 54.4895 49.2364 55.0431 49.7129 55.0431H53.9218H77.1106H79.2547C79.7312 55.0431 79.9694 54.4895 79.6518 54.1732L66.3897 38.9888C65.3574 37.8816 63.6103 37.8816 62.6573 38.9888Z" fill="white"/>
        <path d="M77.1106 73.6281V79.0849C77.1106 82.7228 74.1723 85.649 70.5192 85.649H58.5278C54.8748 85.649 51.9365 82.7228 51.9365 79.0849V73.6281H77.1106Z" fill="white"/>
        <path d="M77.3488 58.2855H51.8571V73.628H77.3488V58.2855Z" fill="white"/>
        <path d="M88.8638 56.4667L80.6842 65.8778C80.5253 66.1151 80.6842 66.4314 80.9224 66.4314H83.5431H97.8375H99.1875C99.5052 66.4314 99.5846 66.1151 99.4258 65.8778L91.2462 56.4667C90.5315 55.7549 89.4991 55.7549 88.8638 56.4667Z" fill="white"/>
        <path d="M97.7581 77.8196V81.1411C97.7581 83.3555 95.9316 85.1745 93.708 85.1745H86.3225C84.0989 85.1745 82.2724 83.3555 82.2724 81.1411V77.8196H97.7581Z" fill="white"/>
        <path d="M97.9169 68.3295H82.193V77.8197H97.9169V68.3295Z" fill="white"/>
        <path d="M37.245 56.4667L28.986 65.8778C28.8271 66.1151 28.986 66.4314 29.2242 66.4314H31.8448H46.1393H47.4893C47.807 66.4314 47.8864 66.1151 47.7276 65.8778L39.4686 56.4667C38.9127 55.7549 37.8009 55.7549 37.245 56.4667Z" fill="white"/>
        <path d="M46.1393 77.8196V81.1411C46.1393 83.3555 44.3128 85.1745 42.0892 85.1745H34.7037C32.4802 85.1745 30.6537 83.3555 30.6537 81.1411V77.8196H46.1393Z" fill="white"/>
        <path d="M46.2981 68.3295H30.5742V77.8197H46.2981V68.3295Z" fill="white"/>
        <path d="M76.3959 38.2772L72.5046 34.9556C72.4252 34.8765 72.2664 34.9556 72.2664 35.0347V36.0628V41.9151V42.4687C72.2664 42.5478 72.4252 42.6269 72.5046 42.5478L76.3959 39.1471C76.7135 38.9889 76.7135 38.5144 76.3959 38.2772Z" fill="white"/>
        <path d="M71.2339 34.8765V49.5863" stroke="white" stroke-miterlimit="10" stroke-linecap="round"/>
        <path d="M58.0513 66.2732H55.6689C54.6365 66.2732 53.8424 65.4823 53.8424 64.4542V62.0817C53.8424 61.0535 54.6365 60.2627 55.6689 60.2627H58.0513C59.0837 60.2627 59.8778 61.0535 59.8778 62.0817V64.4542C59.8778 65.4823 59.0837 66.2732 58.0513 66.2732Z" fill="#92CCC1"/>
        <path d="M66.0721 66.2732H63.6897C62.6573 66.2732 61.8632 65.4823 61.8632 64.4542V62.0817C61.8632 61.0535 62.6573 60.2627 63.6897 60.2627H66.0721C67.1045 60.2627 67.8986 61.0535 67.8986 62.0817V64.4542C67.8986 65.4823 67.1045 66.2732 66.0721 66.2732Z" fill="#92CCC1"/>
        <path d="M73.4575 66.2732H71.0751C70.0428 66.2732 69.2486 65.4823 69.2486 64.4542V62.0817C69.2486 61.0535 70.0428 60.2627 71.0751 60.2627H73.4575C74.4899 60.2627 75.2841 61.0535 75.2841 62.0817V64.4542C75.2841 65.4823 74.4899 66.2732 73.4575 66.2732Z" fill="#92CCC1"/>
        <path d="M58.0513 74.9725H55.6689C54.6365 74.9725 53.8424 74.1816 53.8424 73.1535V70.781C53.8424 69.7529 54.6365 68.962 55.6689 68.962H58.0513C59.0837 68.962 59.8778 69.7529 59.8778 70.781V73.1535C59.8778 74.1816 59.0837 74.9725 58.0513 74.9725Z" fill="#92CCC1"/>
        <path d="M66.0721 81.5365H63.6897C62.6573 81.5365 61.8632 80.7457 61.8632 79.7176V70.781C61.8632 69.7529 62.6573 68.962 63.6897 68.962H66.0721C67.1045 68.962 67.8986 69.7529 67.8986 70.781V79.6385C67.8986 80.6666 67.1045 81.5365 66.0721 81.5365Z" fill="#92CCC1"/>
        <path d="M73.4575 74.9725H71.0751C70.0428 74.9725 69.2486 74.1816 69.2486 73.1535V70.781C69.2486 69.7529 70.0428 68.962 71.0751 68.962H73.4575C74.4899 68.962 75.2841 69.7529 75.2841 70.781V73.1535C75.2841 74.1816 74.4899 74.9725 73.4575 74.9725Z" fill="#92CCC1"/>
    </g>
    <defs>
        <clipPath id="clip0_4_1841">
            <rect width="130" height="121" fill="white"/>
        </clipPath>
    </defs>
</svg>
