<svg width="34" height="34" viewBox="0 0 34 34" fill="none" xmlns="http://www.w3.org/2000/svg">
    <g clip-path="url(#clip0_53_48)">
        <path d="M24.5001 26.5L22.7001 22H10.4001L8.70007 26.6H15.0001C15.0001 26.7 15.0001 26.7 15.0001 26.8C15.0001 27.6 15.6001 28.2 16.4001 28.2C17.2001 28.2 17.8001 27.6 17.8001 26.8C17.8001 26.7 17.8001 26.7 17.8001 26.6H24.5001V26.5Z" stroke="white" stroke-miterlimit="10"/>
        <path d="M17.8001 9C17.8001 9 17.8001 8.9 17.8001 9C17.8001 7.5 17.3001 6 16.4001 6C15.5001 6 15.0001 7.5 15.0001 8.9C15.0001 8.9 15.0001 8.9 15.0001 9C12.8001 10.1 11.0001 13.9 10.6001 18.7H22.1001C21.7001 13.9 20.0001 10.1 17.8001 9ZM16.4001 8.6C16.2001 8.6 16.0001 8.6 15.8001 8.7C15.8001 7.4 16.3001 6.7 16.4001 6.7C16.6001 6.7 17.0001 7.4 17.0001 8.7C16.8001 8.7 16.6001 8.6 16.4001 8.6Z" stroke="white" stroke-miterlimit="10"/>
        <path d="M33.4 16.9C33.4 21.9 31.2 26.4 27.6 29.4C24.7 31.8 21 33.3 16.9 33.3C12.8 33.3 9.10002 31.8 6.20002 29.4C2.70002 26.4 0.400024 21.9 0.400024 16.9C0.400024 7.8 7.80002 0.5 16.8 0.5C26 0.5 33.4 7.9 33.4 16.9Z" stroke="white" stroke-miterlimit="10"/>
    </g>
    <defs>
        <clipPath id="clip0_53_48">
            <rect width="33.9" height="33.9" fill="white"/>
        </clipPath>
    </defs>
</svg>
