<svg width="36" height="51" viewBox="0 0 36 51" fill="none" xmlns="http://www.w3.org/2000/svg">
    <path d="M21.5797 24.0622C23.0752 22.5406 24.5706 21.019 26.066 19.4974C26.4398 19.1171 26.8137 18.6099 27.2499 18.0393C28.9322 15.5667 29.493 12.587 28.9322 9.60725C28.3714 6.62751 26.6891 4.02816 24.1967 2.253C21.7667 0.541232 18.5889 -0.156152 15.7227 0.414437C12.8565 0.921626 10.3641 2.63339 8.68175 5.10594C7.24864 7.2615 6.56324 9.86084 6.81248 12.4602C7.06171 15.0595 8.18328 17.5321 9.99024 19.434C11.4857 21.019 13.0434 22.5406 14.5388 24.1255C6.68786 25.7105 0.768494 32.7478 0.768494 41.2432C0.768494 42.1942 0.830804 43.1452 1.01773 44.0961C5.5663 48.0269 11.4857 50.436 17.9658 50.436C24.446 50.436 30.3653 48.0269 34.9139 44.0961C35.0385 43.1452 35.1631 42.1942 35.1631 41.2432C35.1631 32.7478 29.3684 25.7105 21.5797 24.0622ZM10.738 18.6733C9.05561 16.8981 7.99635 14.6791 7.80942 12.27C7.56019 9.92424 8.18328 7.51509 9.55408 5.54973C11.1118 3.26738 13.3549 1.74581 15.9719 1.23862C16.595 1.11182 17.2181 1.04842 17.7789 1.04842C19.8974 1.04842 22.0159 1.74581 23.6982 2.95038C25.9414 4.53535 27.4991 6.9445 28.0599 9.67065C28.5584 12.3968 28.0599 15.1863 26.5022 17.4053C26.1283 17.9759 25.7544 18.4197 25.4429 18.7367C23.8229 20.4484 22.1405 22.0968 20.5205 23.8086C20.3959 23.8086 20.3336 23.7452 20.2089 23.7452C19.4612 23.6818 18.7135 23.6184 17.9658 23.6184C17.2181 23.6184 16.4704 23.6818 15.7227 23.7452C15.7227 23.7452 15.7227 23.7452 15.6604 23.7452C14.0403 22.0968 12.358 20.385 10.738 18.6733Z" fill="white" stroke-width="1.5"/>
    <path d="M25.6921 9.9242C25.256 7.76864 24.0721 5.93008 22.3274 4.72551C21.5174 4.15492 20.6451 3.77453 19.7104 3.52093C19.5858 3.45753 19.4612 3.45753 19.3366 3.45753C19.025 3.39414 18.7135 3.64773 18.7135 3.96472V4.21832C18.7135 4.47191 18.9004 4.72551 19.1497 4.72551C20.022 4.9157 20.8943 5.2961 21.642 5.80329C22.0159 6.05688 22.3274 6.37387 22.639 6.69087C23.5736 7.64185 24.1967 8.84642 24.4459 10.1778C24.6952 11.3824 24.5706 12.5869 24.1967 13.7281C24.0098 14.2353 23.7605 14.7425 23.449 15.1863C23.1998 15.5667 22.9505 15.8203 22.7636 16.0739C21.8913 16.9615 21.0189 17.9124 20.0843 18.8C20.0843 18.6098 20.0843 18.483 20.0843 18.2928C20.0843 18.0392 20.0843 17.7856 20.0843 17.4686C20.0843 17.2784 20.2089 16.9615 20.3335 16.8347C20.4582 16.7079 20.5828 16.5177 20.7697 16.3909C20.8943 16.2007 21.0812 16.0739 21.2059 15.8837C21.5174 15.3131 21.4551 14.8059 21.1436 14.2987C21.0189 14.1085 20.9566 14.1085 20.832 14.2987C20.5205 14.6157 20.1466 14.9961 19.8351 15.3131C19.5235 15.6301 19.1497 16.0105 18.8381 16.3275C18.7135 16.3909 18.7135 16.5177 18.7135 16.6445C18.7135 16.7079 18.7135 16.7079 18.7135 16.7713C18.7135 16.9615 18.7135 17.215 18.7135 17.4052C18.7135 17.9758 18.7758 20.5118 18.7758 20.5118V20.702C18.7758 21.2092 19.3366 21.3994 19.7104 21.0824C21.0189 19.751 22.452 18.2928 23.7605 16.8981C24.0098 16.5811 24.3213 16.2641 24.5706 15.8203C25.6921 14.1719 26.066 12.0164 25.6921 9.9242Z" fill="white" stroke-width="1.5" />
    <path d="M10.1772 9.9242C10.6133 7.76864 11.7972 5.93008 13.5419 4.72551C14.3519 4.15492 15.2242 3.77453 16.1588 3.52093C16.2835 3.45753 16.4081 3.45753 16.5327 3.45753C16.8442 3.39414 17.1558 3.64773 17.1558 3.96472V4.21832C17.1558 4.47191 16.9689 4.72551 16.7196 4.72551C15.8473 4.9157 14.975 5.2961 14.2273 5.80329C13.8534 6.05688 13.5419 6.37387 13.2303 6.69087C12.2957 7.64185 11.6726 8.84642 11.4233 10.1778C11.1741 11.3824 11.2987 12.5869 11.6726 13.7281C11.8595 14.2353 12.1087 14.7425 12.4203 15.1863C12.6695 15.5667 12.9188 15.8203 13.1057 16.0739C13.978 16.9615 14.8503 17.9124 15.785 18.8C15.785 18.6098 15.785 18.483 15.785 18.2928C15.785 18.0392 15.785 17.7856 15.785 17.4686C15.785 17.2784 15.6604 16.9615 15.5357 16.8347C15.4111 16.7079 15.2865 16.5177 15.0996 16.3909C14.975 16.2007 14.788 16.0739 14.6634 15.8837C14.3519 15.3131 14.4142 14.8059 14.7257 14.2987C14.8503 14.1085 14.9127 14.1085 15.0373 14.2987C15.3488 14.6157 15.7227 14.9961 16.0342 15.3131C16.3458 15.6301 16.7196 16.0105 17.0312 16.3275C17.1558 16.3909 17.1558 16.5177 17.1558 16.6445C17.1558 16.7079 17.1558 16.7079 17.1558 16.7713C17.1558 16.9615 17.1558 17.215 17.1558 17.4052C17.1558 17.9758 17.0935 20.5118 17.0935 20.5118V20.702C17.0935 21.2092 16.5327 21.3994 16.1588 21.0824C14.8503 19.751 13.4172 18.2928 12.1087 16.8981C11.8595 16.5811 11.548 16.2641 11.2987 15.8203C10.1772 14.1719 9.741 12.0164 10.1772 9.9242Z" fill="white" stroke-width="1.5"/>
</svg>
