<svg width="34" height="34" viewBox="0 0 34 34" fill="none" xmlns="http://www.w3.org/2000/svg">
    <circle cx="17" cy="17" r="16.5" stroke="white"/>
    <path d="M16.9281 26.639C17.8633 26.639 18.5828 25.917 18.5828 24.9783V23.8953V23.6065L18.8705 23.5343C19.3021 23.3899 19.7338 23.2455 20.1655 23.0289L20.4534 22.8845L20.669 23.1011L21.4605 23.8953C21.7482 24.1841 22.18 24.4007 22.6116 24.4007C23.0433 24.4007 23.4748 24.2563 23.7626 23.8953C24.4101 23.2455 24.4101 22.2347 23.7626 21.5848L23.0432 20.8628L22.8273 20.6462L22.9713 20.3574C23.1872 19.9242 23.4028 19.491 23.5467 18.9855L23.6187 18.6968H23.9064H24.8417C25.777 18.6968 26.4964 17.9747 26.4964 17.0361C26.4964 16.0975 25.777 15.3754 24.8417 15.3754H23.9785H23.6908L23.6187 15.0866C23.4749 14.5812 23.259 14.0758 23.0432 13.5704L22.8993 13.2816L23.1152 13.065L23.6908 12.4873C24.3382 11.8375 24.3382 10.8267 23.6908 10.1769C23.403 9.8881 22.9713 9.67149 22.5396 9.67149C22.108 9.67149 21.6762 9.8159 21.3885 10.1769L20.8849 10.6823L20.669 10.8989L20.3813 10.7545C19.8777 10.4657 19.3742 10.2491 18.7986 10.1047L18.5108 10.0325V9.74367V9.02165C18.5108 8.08302 17.7915 7.36101 16.8562 7.36101C15.921 7.36101 15.2015 8.08302 15.2015 9.02165V9.74367V10.0325L14.9137 10.1047C14.3381 10.2491 13.8346 10.4657 13.331 10.7545L13.0433 10.8989L12.8274 10.6823L12.3238 10.1769C12.0361 9.8881 11.6043 9.67149 11.1727 9.67149C10.741 9.67149 10.3095 9.8159 10.0217 10.1769C9.73395 10.4657 9.51798 10.8989 9.51798 11.3321C9.51798 11.7653 9.66201 12.1985 10.0217 12.4873L10.5971 13.065L10.813 13.2816L10.6691 13.5704C10.4533 14.0758 10.2374 14.5812 10.0936 15.0866L10.0217 15.3754H9.73384H8.87057C7.93532 15.3754 7.21586 16.0975 7.21586 17.0361C7.21586 17.9747 7.93532 18.6968 8.87057 18.6968H9.80586H10.0936L10.1656 18.9855C10.3095 19.491 10.5253 19.9242 10.7411 20.3574L10.885 20.6462L10.6691 20.8628L9.94971 21.5848C9.66194 21.8736 9.44614 22.3068 9.44614 22.7401C9.44614 23.1733 9.58999 23.6065 9.94971 23.8953C10.2375 24.1841 10.6692 24.4007 11.1009 24.4007C11.5325 24.4007 11.9641 24.2563 12.2518 23.8953L13.0433 23.1011L13.2591 22.8845L13.5468 23.0289C13.9785 23.2455 14.4102 23.3899 14.8418 23.5343L15.1295 23.6065V23.8953V24.9783C15.2734 25.8448 15.9928 26.639 16.9281 26.639ZM16.9281 12.1986C19.4461 12.1986 21.4605 14.2202 21.4605 16.7473C21.4605 19.2744 19.4461 21.296 16.9281 21.296C14.4101 21.296 12.3957 19.2744 12.3957 16.7473C12.3957 14.2202 14.4101 12.1986 16.9281 12.1986ZM16.9281 27C15.777 27 14.9137 26.0614 14.9137 24.9783V23.8953C14.4101 23.7509 13.9785 23.5343 13.5468 23.3177L12.7554 24.1119C12.3957 24.4729 11.8201 24.6895 11.3165 24.6895C10.741 24.6895 10.2374 24.4729 9.87769 24.1119C9.51798 23.7509 9.30229 23.1733 9.30229 22.6679C9.30229 22.0903 9.51798 21.5848 9.87769 21.2238L10.5971 20.5018C10.3093 20.0686 10.0936 19.5632 9.94971 19.0578H9.01442C7.86334 19.0578 7 18.1191 7 17.0361C7 15.8809 7.93529 15.0144 9.01442 15.0144H9.87769C10.0216 14.4368 10.2375 13.9314 10.5253 13.426L9.94971 12.8484C9.58999 12.4873 9.37413 11.9097 9.37413 11.4043C9.37413 10.8267 9.58999 10.3213 9.94971 9.96027C10.3094 9.59926 10.885 9.38266 11.3886 9.38266C11.9641 9.38266 12.4677 9.59926 12.8274 9.96027L13.331 10.4657C13.8346 10.1769 14.4101 9.96028 14.9857 9.74367V9.02165C14.9857 7.86642 15.921 7 17.0001 7C18.0792 7 19.0145 7.93862 19.0145 9.02165V9.74367C19.59 9.88808 20.1654 10.1769 20.669 10.4657L21.1728 9.96027C21.5325 9.59926 22.108 9.38266 22.6116 9.38266C23.1872 9.38266 23.6908 9.59926 24.0505 9.96027C24.8418 10.7545 24.8418 12.0541 24.0505 12.8484L23.4749 13.426C23.7627 13.9314 23.9784 14.4368 24.1223 15.0144H24.9856C26.1367 15.0144 27 15.9531 27 17.0361C27 18.1913 26.0647 19.0578 24.9856 19.0578H24.0505C23.9066 19.5632 23.6907 20.0686 23.4029 20.5018L24.1223 21.2238C24.9137 22.0181 24.9137 23.3177 24.1223 24.1119C23.7626 24.4729 23.1871 24.6895 22.6835 24.6895C22.1079 24.6895 21.6043 24.4729 21.2446 24.1119L20.4534 23.3177C20.0217 23.5343 19.518 23.7509 19.0863 23.8953V24.9783C18.9425 26.1336 18.0072 27 16.9281 27ZM16.9281 12.6318C14.6979 12.6318 12.8274 14.509 12.8274 16.7473C12.8274 18.9856 14.6979 20.8628 16.9281 20.8628C19.1583 20.8628 21.0288 18.9856 21.0288 16.7473C21.0288 14.4368 19.1583 12.6318 16.9281 12.6318Z" fill="white" stroke="white"/>
</svg>
